<svg width="18" height="18" viewBox="0 0 18 18" fill="none" xmlns="http://www.w3.org/2000/svg">
<path fill-rule="evenodd" clip-rule="evenodd" d="M0.166672 0.166626H0.666672H17.3333H17.8333V0.666626V17.3333V17.8333H17.3333H0.666672H0.166672V17.3333V0.666626V0.166626ZM1.16667 1.16663V16.8333H16.8333V1.16663H1.16667ZM8.24348 13.0384H10.0768V14.9871H8.24348V13.0384ZM7.74351 5.44868C7.44345 5.79093 7.2399 6.20688 7.15376 6.65381L7.12812 6.8333L5.38453 6.52561V6.35894C5.50959 5.84783 5.70369 5.35613 5.96146 4.8974C6.1895 4.50693 6.48462 4.15973 6.83325 3.87176C7.16061 3.60484 7.53438 3.40057 7.93582 3.2692C8.79241 2.98 9.72025 2.98 10.5768 3.2692C10.976 3.41879 11.3419 3.6453 11.6538 3.93586C11.9527 4.22145 12.1885 4.56646 12.3461 4.94868C12.5133 5.35512 12.5962 5.79129 12.5897 6.23073C12.5834 6.54845 12.5316 6.86363 12.4358 7.16663C12.3434 7.43276 12.2275 7.69018 12.0897 7.93586C11.945 8.15918 11.7866 8.37326 11.6153 8.57689L11.0897 9.14099C10.8226 9.41826 10.5701 9.70925 10.3333 10.0128C10.1391 10.2763 10.0356 10.5957 10.0384 10.923V11.9102H8.25633V10.8846C8.25344 10.4924 8.33203 10.1038 8.4871 9.74356C8.65232 9.3902 8.87307 9.06557 9.14094 8.78202L9.67941 8.21791C9.87113 8.03209 10.047 7.83053 10.205 7.61535C10.3627 7.41576 10.5001 7.20104 10.6153 6.97432C10.7043 6.78115 10.7524 6.57161 10.7563 6.35894C10.7523 6.18628 10.7308 6.01446 10.6922 5.84612C10.6419 5.64949 10.5501 5.46589 10.423 5.30766C10.2801 5.13064 10.1008 4.98637 9.89735 4.88458C9.62542 4.75552 9.32636 4.69395 9.02556 4.70509C8.78003 4.71782 8.54179 4.79283 8.33325 4.92304C8.10284 5.05615 7.90214 5.23504 7.74351 5.44868Z" fill="#915FFF"/>
</svg>
